<mxfile host="Electron" modified="2023-07-27T15:53:03.528Z" agent="Mozilla/5.0 (Macintosh; Intel Mac OS X 10_15_7) AppleWebKit/537.36 (KHTML, like Gecko) draw.io/21.6.5 Chrome/114.0.5735.243 Electron/25.3.1 Safari/537.36" etag="Bo8YWFErb1fa9mtN1H6U" version="21.6.5" type="device">
  <diagram name="Page-1" id="nAOvlJR9PkQLA06TrpnJ">
    <mxGraphModel dx="2074" dy="1214" grid="1" gridSize="10" guides="1" tooltips="1" connect="1" arrows="1" fold="1" page="1" pageScale="1" pageWidth="827" pageHeight="1169" math="0" shadow="0">
      <root>
        <mxCell id="0" />
        <mxCell id="1" parent="0" />
        <mxCell id="fXyavSzsCe2-E6zsJxmG-2" style="edgeStyle=orthogonalEdgeStyle;rounded=0;orthogonalLoop=1;jettySize=auto;html=1;" edge="1" parent="1" source="fXyavSzsCe2-E6zsJxmG-1" target="fXyavSzsCe2-E6zsJxmG-3">
          <mxGeometry relative="1" as="geometry">
            <mxPoint x="520" y="485" as="targetPoint" />
          </mxGeometry>
        </mxCell>
        <mxCell id="fXyavSzsCe2-E6zsJxmG-5" value="Async" style="edgeLabel;html=1;align=center;verticalAlign=middle;resizable=0;points=[];" vertex="1" connectable="0" parent="fXyavSzsCe2-E6zsJxmG-2">
          <mxGeometry x="-0.05" y="1" relative="1" as="geometry">
            <mxPoint y="1" as="offset" />
          </mxGeometry>
        </mxCell>
        <mxCell id="fXyavSzsCe2-E6zsJxmG-1" value="&lt;font style=&quot;font-size: 16px;&quot;&gt;Tasks Crud&lt;br&gt;&lt;br&gt;&lt;/font&gt;" style="whiteSpace=wrap;html=1;aspect=fixed;" vertex="1" parent="1">
          <mxGeometry x="70" y="390" width="190" height="190" as="geometry" />
        </mxCell>
        <mxCell id="fXyavSzsCe2-E6zsJxmG-6" style="edgeStyle=orthogonalEdgeStyle;rounded=0;orthogonalLoop=1;jettySize=auto;html=1;entryX=0.442;entryY=0.009;entryDx=0;entryDy=0;entryPerimeter=0;" edge="1" parent="1" source="fXyavSzsCe2-E6zsJxmG-3" target="fXyavSzsCe2-E6zsJxmG-4">
          <mxGeometry relative="1" as="geometry" />
        </mxCell>
        <mxCell id="fXyavSzsCe2-E6zsJxmG-7" value="Async" style="edgeLabel;html=1;align=center;verticalAlign=middle;resizable=0;points=[];" vertex="1" connectable="0" parent="fXyavSzsCe2-E6zsJxmG-6">
          <mxGeometry x="0.0258" y="1" relative="1" as="geometry">
            <mxPoint as="offset" />
          </mxGeometry>
        </mxCell>
        <mxCell id="fXyavSzsCe2-E6zsJxmG-3" value="&lt;font style=&quot;font-size: 18px;&quot;&gt;Tasks Processor&lt;/font&gt;" style="whiteSpace=wrap;html=1;aspect=fixed;" vertex="1" parent="1">
          <mxGeometry x="540" y="402.5" width="165" height="165" as="geometry" />
        </mxCell>
        <mxCell id="fXyavSzsCe2-E6zsJxmG-8" style="edgeStyle=orthogonalEdgeStyle;rounded=0;orthogonalLoop=1;jettySize=auto;html=1;" edge="1" parent="1" source="fXyavSzsCe2-E6zsJxmG-4" target="fXyavSzsCe2-E6zsJxmG-9">
          <mxGeometry relative="1" as="geometry">
            <mxPoint x="100" y="762.5" as="targetPoint" />
          </mxGeometry>
        </mxCell>
        <mxCell id="fXyavSzsCe2-E6zsJxmG-10" value="Async" style="edgeLabel;html=1;align=center;verticalAlign=middle;resizable=0;points=[];" vertex="1" connectable="0" parent="fXyavSzsCe2-E6zsJxmG-8">
          <mxGeometry x="0.0246" y="-1" relative="1" as="geometry">
            <mxPoint as="offset" />
          </mxGeometry>
        </mxCell>
        <mxCell id="fXyavSzsCe2-E6zsJxmG-4" value="&lt;span style=&quot;font-size: 18px;&quot;&gt;Accounting&lt;br&gt;Accounts, Transactions&lt;br&gt;&lt;/span&gt;" style="whiteSpace=wrap;html=1;aspect=fixed;" vertex="1" parent="1">
          <mxGeometry x="430" y="680" width="165" height="165" as="geometry" />
        </mxCell>
        <mxCell id="fXyavSzsCe2-E6zsJxmG-9" value="Analytics" style="rounded=0;whiteSpace=wrap;html=1;" vertex="1" parent="1">
          <mxGeometry x="40" y="732.5" width="120" height="187.5" as="geometry" />
        </mxCell>
      </root>
    </mxGraphModel>
  </diagram>
</mxfile>
